<?xml version="1.0" encoding="UTF-8" standalone="no"?><svg xmlns="http://www.w3.org/2000/svg" xmlns:xlink="http://www.w3.org/1999/xlink" contentStyleType="text/css" height="576px" preserveAspectRatio="none" style="width:1052px;height:576px;background:#FFFFFF;" version="1.1" viewBox="0 0 1052 576" width="1052px" zoomAndPan="magnify"><defs/><g><!--MD5=[238270d1be3451a3a54451da034f215d]
cluster SelflessServe System--><g id="cluster_SelflessServe System"><path d="M8.5,6 L161.5,6 A3.75,3.75 0 0 1 164,8.5 L171,29.6094 L865.5,29.6094 A2.5,2.5 0 0 1 868,32.1094 L868,566.5 A2.5,2.5 0 0 1 865.5,569 L8.5,569 A2.5,2.5 0 0 1 6,566.5 L6,8.5 A2.5,2.5 0 0 1 8.5,6 " fill="none" style="stroke:#000000;stroke-width:1.5;"/><line style="stroke:#000000;stroke-width:1.5;" x1="6" x2="171" y1="29.6094" y2="29.6094"/><text fill="#000000" font-family="sans-serif" font-size="14" font-weight="bold" lengthAdjust="spacing" textLength="152" x="10" y="22.5332">SelflessServe System</text></g><!--MD5=[f62410c73014d2ac19f4867596518177]
cluster UserDatabase--><g id="cluster_UserDatabase"><path d="M254,440 C254,430 320,430 320,430 C320,430 386,430 386,440 L386,535 C386,545 320,545 320,545 C320,545 254,545 254,535 L254,440 " fill="none" style="stroke:#181818;stroke-width:1.0;"/><path d="M254,440 C254,450 320,450 320,450 C320,450 386,450 386,440 " fill="none" style="stroke:#181818;stroke-width:1.0;"/><text fill="#000000" font-family="sans-serif" font-size="14" font-weight="bold" lengthAdjust="spacing" textLength="98" x="271" y="466.5332">UserDatabase</text></g><!--MD5=[e20b49d7cb474b55c13c8a00b7f96d4f]
entity SelflessServeCore--><g id="elem_SelflessServeCore"><rect fill="#F1F1F1" height="47.6094" rx="2.5" ry="2.5" style="stroke:#181818;stroke-width:0.5;" width="157" x="351.5" y="42"/><rect fill="#F1F1F1" height="10" style="stroke:#181818;stroke-width:0.5;" width="15" x="488.5" y="47"/><rect fill="#F1F1F1" height="2" style="stroke:#181818;stroke-width:0.5;" width="4" x="486.5" y="49"/><rect fill="#F1F1F1" height="2" style="stroke:#181818;stroke-width:0.5;" width="4" x="486.5" y="53"/><text fill="#000000" font-family="sans-serif" font-size="14" lengthAdjust="spacing" textLength="117" x="366.5" y="76.5332">SelflessServeCore</text></g><g id="elem_UserRegistrationAPI"><ellipse cx="106.8478" cy="281.8696" fill="#F1F1F1" rx="84.8478" ry="19.3696" style="stroke:#181818;stroke-width:0.5;"/><text fill="#000000" font-family="sans-serif" font-size="14" lengthAdjust="spacing" textLength="126" x="43.8478" y="285.5981">UserRegistrationAPI</text></g><g id="elem_UserLoginAPI"><ellipse cx="296.1119" cy="282.2224" fill="#F1F1F1" rx="69.1119" ry="16.2224" style="stroke:#181818;stroke-width:0.5;"/><text fill="#000000" font-family="sans-serif" font-size="14" lengthAdjust="spacing" textLength="85" x="250.6119" y="286.739">UserLoginAPI</text></g><g id="elem_UserNeedsAPI"><ellipse cx="470.8567" cy="282.0713" fill="#F1F1F1" rx="70.8567" ry="16.5713" style="stroke:#181818;stroke-width:0.5;"/><text fill="#000000" font-family="sans-serif" font-size="14" lengthAdjust="spacing" textLength="90" x="422.8567" y="286.5879">UserNeedsAPI</text></g><g id="elem_NeedyMapAPI"><ellipse cx="782.1531" cy="281.9306" fill="#F1F1F1" rx="70.1531" ry="16.4306" style="stroke:#181818;stroke-width:0.5;"/><text fill="#000000" font-family="sans-serif" font-size="14" lengthAdjust="spacing" textLength="88" x="735.1531" y="286.4472">NeedyMapAPI</text></g><!--MD5=[d8ed6c4bbf39d0b75b17510d36267822]
entity GenericAPI--><g id="elem_GenericAPI"><rect fill="#F1F1F1" height="47.6094" rx="2.5" ry="2.5" style="stroke:#181818;stroke-width:0.5;" width="111" x="368.5" y="150"/><rect fill="#F1F1F1" height="10" style="stroke:#181818;stroke-width:0.5;" width="15" x="459.5" y="155"/><rect fill="#F1F1F1" height="2" style="stroke:#181818;stroke-width:0.5;" width="4" x="457.5" y="157"/><rect fill="#F1F1F1" height="2" style="stroke:#181818;stroke-width:0.5;" width="4" x="457.5" y="161"/><text fill="#000000" font-family="sans-serif" font-size="14" lengthAdjust="spacing" textLength="71" x="383.5" y="184.5332">GenericAPI</text></g><!--MD5=[99f5a15610cc3e1abf8af7c1149b6a9f]
entity EventBus--><g id="elem_EventBus"><rect fill="#F1F1F1" height="47.6094" rx="2.5" ry="2.5" style="stroke:#181818;stroke-width:0.5;" width="100" x="577" y="258"/><rect fill="#F1F1F1" height="10" style="stroke:#181818;stroke-width:0.5;" width="15" x="657" y="263"/><rect fill="#F1F1F1" height="2" style="stroke:#181818;stroke-width:0.5;" width="4" x="655" y="265"/><rect fill="#F1F1F1" height="2" style="stroke:#181818;stroke-width:0.5;" width="4" x="655" y="269"/><text fill="#000000" font-family="sans-serif" font-size="14" lengthAdjust="spacing" textLength="60" x="592" y="292.5332">EventBus</text></g><!--MD5=[a2f9698b646e75d4ce37066d9419562a]
entity AuthService--><g id="elem_AuthService"><rect fill="#F1F1F1" height="47.6094" rx="2.5" ry="2.5" style="stroke:#181818;stroke-width:0.5;" width="116" x="177" y="366"/><rect fill="#F1F1F1" height="10" style="stroke:#181818;stroke-width:0.5;" width="15" x="273" y="371"/><rect fill="#F1F1F1" height="2" style="stroke:#181818;stroke-width:0.5;" width="4" x="271" y="373"/><rect fill="#F1F1F1" height="2" style="stroke:#181818;stroke-width:0.5;" width="4" x="271" y="377"/><text fill="#000000" font-family="sans-serif" font-size="14" lengthAdjust="spacing" textLength="76" x="192" y="400.5332">AuthService</text></g><!--MD5=[d955269800aac3db9d4a860c0c11a9ab]
entity UserProfileService--><g id="elem_UserProfileService"><rect fill="#F1F1F1" height="47.6094" rx="2.5" ry="2.5" style="stroke:#181818;stroke-width:0.5;" width="156" x="328" y="366"/><rect fill="#F1F1F1" height="10" style="stroke:#181818;stroke-width:0.5;" width="15" x="464" y="371"/><rect fill="#F1F1F1" height="2" style="stroke:#181818;stroke-width:0.5;" width="4" x="462" y="373"/><rect fill="#F1F1F1" height="2" style="stroke:#181818;stroke-width:0.5;" width="4" x="462" y="377"/><text fill="#000000" font-family="sans-serif" font-size="14" lengthAdjust="spacing" textLength="116" x="343" y="400.5332">UserProfileService</text></g><!--MD5=[87fbe474d631f34a67841fa33e89f976]
entity NeedsMatchingService--><g id="elem_NeedsMatchingService"><rect fill="#F1F1F1" height="47.6094" rx="2.5" ry="2.5" style="stroke:#181818;stroke-width:0.5;" width="184" x="519" y="366"/><rect fill="#F1F1F1" height="10" style="stroke:#181818;stroke-width:0.5;" width="15" x="683" y="371"/><rect fill="#F1F1F1" height="2" style="stroke:#181818;stroke-width:0.5;" width="4" x="681" y="373"/><rect fill="#F1F1F1" height="2" style="stroke:#181818;stroke-width:0.5;" width="4" x="681" y="377"/><text fill="#000000" font-family="sans-serif" font-size="14" lengthAdjust="spacing" textLength="144" x="534" y="400.5332">NeedsMatchingService</text></g><!--MD5=[88c14708aa7d81aebea62dae4aceda1f]
entity MapService--><g id="elem_MapService"><rect fill="#F1F1F1" height="47.6094" rx="2.5" ry="2.5" style="stroke:#181818;stroke-width:0.5;" width="114" x="738" y="366"/><rect fill="#F1F1F1" height="10" style="stroke:#181818;stroke-width:0.5;" width="15" x="832" y="371"/><rect fill="#F1F1F1" height="2" style="stroke:#181818;stroke-width:0.5;" width="4" x="830" y="373"/><rect fill="#F1F1F1" height="2" style="stroke:#181818;stroke-width:0.5;" width="4" x="830" y="377"/><text fill="#000000" font-family="sans-serif" font-size="14" lengthAdjust="spacing" textLength="74" x="753" y="400.5332">MapService</text></g><!--MD5=[65f8bdc5a40284a45df1e3ddf049a85d]
entity NewMicroservices--><g id="elem_NewMicroservices"><rect fill="#98FB98" height="47.6094" rx="2.5" ry="2.5" style="stroke:#181818;stroke-width:0.5;" width="152" x="551" y="42"/><rect fill="#98FB98" height="10" style="stroke:#181818;stroke-width:0.5;" width="15" x="683" y="47"/><rect fill="#98FB98" height="2" style="stroke:#181818;stroke-width:0.5;" width="4" x="681" y="49"/><rect fill="#98FB98" height="2" style="stroke:#181818;stroke-width:0.5;" width="4" x="681" y="53"/><text fill="#000000" font-family="sans-serif" font-size="14" lengthAdjust="spacing" textLength="112" x="566" y="76.5332">NewMicroservices</text></g><!--MD5=[eb7a1ef89a3131217fb34e70591ca77d]
entity UserData--><g id="elem_UserData"><rect fill="#F1F1F1" height="47.6094" rx="2.5" ry="2.5" style="stroke:#181818;stroke-width:0.5;" width="99" x="270.5" y="481"/><rect fill="#F1F1F1" height="10" style="stroke:#181818;stroke-width:0.5;" width="15" x="349.5" y="486"/><rect fill="#F1F1F1" height="2" style="stroke:#181818;stroke-width:0.5;" width="4" x="347.5" y="488"/><rect fill="#F1F1F1" height="2" style="stroke:#181818;stroke-width:0.5;" width="4" x="347.5" y="492"/><text fill="#000000" font-family="sans-serif" font-size="14" lengthAdjust="spacing" textLength="59" x="285.5" y="515.5332">UserData</text></g><!--MD5=[79d0430dd64ddc626904dd2e3d0a8676]
entity ExternalResources--><g id="elem_ExternalResources"><rect fill="#F1F1F1" height="47.6094" rx="2.5" ry="2.5" style="stroke:#181818;stroke-width:0.5;" width="159" x="887.5" y="258"/><rect fill="#F1F1F1" height="10" style="stroke:#181818;stroke-width:0.5;" width="15" x="1026.5" y="263"/><rect fill="#F1F1F1" height="2" style="stroke:#181818;stroke-width:0.5;" width="4" x="1024.5" y="265"/><rect fill="#F1F1F1" height="2" style="stroke:#181818;stroke-width:0.5;" width="4" x="1024.5" y="269"/><text fill="#000000" font-family="sans-serif" font-size="14" lengthAdjust="spacing" textLength="119" x="902.5" y="292.5332">ExternalResources</text></g><!--MD5=[3f44c08b530b3a6c33b92ce4b1dd7742]
link SelflessServeCore to UserRegistrationAPI--><g id="link_SelflessServeCore_UserRegistrationAPI"><path d="M395.13,90.11 C331.72,132.11 198.54,220.35 138.06,260.42 " fill="none" id="SelflessServeCore-to-UserRegistrationAPI" style="stroke:#181818;stroke-width:1.0;stroke-dasharray:7.0,7.0;"/><polygon fill="#181818" points="133.84,263.22,143.5538,261.5944,138.0112,260.463,139.1426,254.9204,133.84,263.22" style="stroke:#181818;stroke-width:1.0;"/></g><!--MD5=[332daf167dffc3b3e7e0def8e4491cf7]
link SelflessServeCore to UserLoginAPI--><g id="link_SelflessServeCore_UserLoginAPI"><path d="M403.59,90.03 C386.86,105.67 365.7,127.52 351,150 C327.33,186.19 310.29,234.25 301.89,260.95 " fill="none" id="SelflessServeCore-to-UserLoginAPI" style="stroke:#181818;stroke-width:1.0;stroke-dasharray:7.0,7.0;"/><polygon fill="#181818" points="300.33,265.99,306.8248,258.5861,301.8165,261.2161,299.1865,256.2077,300.33,265.99" style="stroke:#181818;stroke-width:1.0;"/></g><!--MD5=[e8cb65a57eafcd671e8de98164c3c2ef]
link SelflessServeCore to UserNeedsAPI--><g id="link_SelflessServeCore_UserNeedsAPI"><path d="M456.2,90.33 C471.3,105.6 488.86,126.95 497,150 C510.38,187.87 493.75,234.47 481.59,260.64 " fill="none" id="SelflessServeCore-to-UserNeedsAPI" style="stroke:#181818;stroke-width:1.0;stroke-dasharray:7.0,7.0;"/><polygon fill="#181818" points="479.39,265.29,486.863,258.8748,481.5341,260.7731,479.6359,255.4442,479.39,265.29" style="stroke:#181818;stroke-width:1.0;"/></g><!--MD5=[b1dd3b117d3cbfd553a8ef05fc825c0f]
link SelflessServeCore to NeedyMapAPI--><g id="link_SelflessServeCore_NeedyMapAPI"><path d="M468,90.11 C539.01,133.27 690.32,225.26 753.43,263.63 " fill="none" id="SelflessServeCore-to-NeedyMapAPI" style="stroke:#181818;stroke-width:1.0;stroke-dasharray:7.0,7.0;"/><polygon fill="#181818" points="757.82,266.3,752.1922,258.2174,753.5427,263.7107,748.0494,265.0611,757.82,266.3" style="stroke:#181818;stroke-width:1.0;"/></g><!--MD5=[b8c954f91e6c20a5a8e73ce60077aee2]
link SelflessServeCore to GenericAPI--><g id="link_SelflessServeCore_GenericAPI"><path d="M428.7,90 C427.7,107.66 426.32,131.94 425.32,149.68 " fill="none" id="SelflessServeCore-GenericAPI" style="stroke:#181818;stroke-width:1.0;"/></g><!--MD5=[75ab607d87a90ae606d520b469ade372]
link SelflessServeCore to EventBus--><g id="link_SelflessServeCore_EventBus"><path d="M451.96,90.16 C467.65,106.75 489.21,129.67 508,150 C542.61,187.46 582.37,231.42 606.05,257.7 " fill="none" id="SelflessServeCore-EventBus" style="stroke:#181818;stroke-width:1.0;"/></g><!--MD5=[40ddb43b6285cf50ae765df0b8d8a1bc]
link GenericAPI to UserRegistrationAPI--><g id="link_GenericAPI_UserRegistrationAPI"><path d="M368.42,193.59 C309.01,213.45 215.6,244.68 158.01,263.94 " fill="none" id="GenericAPI-to-UserRegistrationAPI" style="stroke:#181818;stroke-width:1.0;"/><polygon fill="#181818" points="153.24,265.54,163.0439,266.4798,157.982,263.9546,160.5072,258.8926,153.24,265.54" style="stroke:#181818;stroke-width:1.0;"/></g><!--MD5=[e282d3ec96919a86916802256be574f6]
link GenericAPI to UserLoginAPI--><g id="link_GenericAPI_UserLoginAPI"><path d="M396.23,198 C372.55,217.6 339.02,245.37 317.39,263.29 " fill="none" id="GenericAPI-to-UserLoginAPI" style="stroke:#181818;stroke-width:1.0;"/><polygon fill="#181818" points="313.49,266.51,322.9716,263.8455,317.3393,263.3189,317.8659,257.6867,313.49,266.51" style="stroke:#181818;stroke-width:1.0;"/></g><!--MD5=[f5356ceda0786d45111ecdcfa259880a]
link GenericAPI to UserNeedsAPI--><g id="link_GenericAPI_UserNeedsAPI"><path d="M434.2,198 C442.49,216.7 454.08,242.83 462.02,260.75 " fill="none" id="GenericAPI-to-UserNeedsAPI" style="stroke:#181818;stroke-width:1.0;"/><polygon fill="#181818" points="464.16,265.57,464.1657,255.7211,462.132,260.9998,456.8533,258.966,464.16,265.57" style="stroke:#181818;stroke-width:1.0;"/></g><!--MD5=[506604fa28f1374583925e8cbdf02a50]
link GenericAPI to NeedyMapAPI--><g id="link_GenericAPI_NeedyMapAPI"><path d="M479.54,191.45 C549.79,212.25 669.5,247.69 735.28,267.17 " fill="none" id="GenericAPI-to-NeedyMapAPI" style="stroke:#181818;stroke-width:1.0;"/><polygon fill="#181818" points="740.31,268.66,732.8126,262.2733,735.515,267.243,730.5454,269.9453,740.31,268.66" style="stroke:#181818;stroke-width:1.0;"/></g><!--MD5=[7839fbb6ea21fde10ee2bb577d527e43]
link EventBus to AuthService--><g id="link_EventBus_AuthService"><path d="M576.68,300.85 C571.08,302.66 565.43,304.42 560,306 C450.28,337.92 420.23,335.9 310,366 C306.03,367.08 301.96,368.23 297.86,369.41 " fill="none" id="EventBus-to-AuthService" style="stroke:#181818;stroke-width:1.0;"/><polygon fill="#181818" points="293.04,370.81,302.8,372.13,297.84,369.41,300.56,364.45,293.04,370.81" style="stroke:#181818;stroke-width:1.0;"/></g><!--MD5=[5d5c7f85b44c4afea97eaf1685f9d48d]
link EventBus to UserProfileService--><g id="link_EventBus_UserProfileService"><path d="M579.05,306 C543.69,322.96 495.6,346.02 459.09,363.54 " fill="none" id="EventBus-to-UserProfileService" style="stroke:#181818;stroke-width:1.0;"/><polygon fill="#181818" points="454.24,365.86,464.0844,365.5634,458.7458,363.6926,460.6166,358.3541,454.24,365.86" style="stroke:#181818;stroke-width:1.0;"/></g><!--MD5=[f35f51ebe0b9af203fe088996be36cde]
link EventBus to NeedsMatchingService--><g id="link_EventBus_NeedsMatchingService"><path d="M623.53,306 C621.11,322 617.88,343.45 615.3,360.53 " fill="none" id="EventBus-to-NeedsMatchingService" style="stroke:#181818;stroke-width:1.0;"/><polygon fill="#181818" points="614.52,365.68,619.8366,357.3894,615.2771,360.7376,611.9288,356.1781,614.52,365.68" style="stroke:#181818;stroke-width:1.0;"/></g><!--MD5=[3c03363a39462f8f9ec7cf71923e6095]
link EventBus to MapService--><g id="link_EventBus_MapService"><path d="M663.45,306 C690.11,322.82 726.29,345.65 753.96,363.11 " fill="none" id="EventBus-to-MapService" style="stroke:#181818;stroke-width:1.0;"/><polygon fill="#181818" points="758.33,365.86,752.8378,357.6847,754.0964,363.1997,748.5814,364.4584,758.33,365.86" style="stroke:#181818;stroke-width:1.0;"/></g><!--MD5=[9be68406702602a8d8b5315e67d2422d]
link UserRegistrationAPI to AuthService--><g id="link_UserRegistrationAPI_AuthService"><path d="M128.71,300.98 C149.08,317.84 179.78,343.27 202.95,362.46 " fill="none" id="UserRegistrationAPI-to-AuthService" style="stroke:#181818;stroke-width:1.0;"/><polygon fill="#181818" points="206.9,365.73,202.508,356.9146,203.0449,362.546,197.4136,363.0828,206.9,365.73" style="stroke:#181818;stroke-width:1.0;"/></g><!--MD5=[dd573d77d5efd43d0dde8c3d66a9cab8]
link UserLoginAPI to AuthService--><g id="link_UserLoginAPI_AuthService"><path d="M287.26,298.19 C277.83,314.58 262.6,341.04 251.01,361.18 " fill="none" id="UserLoginAPI-to-AuthService" style="stroke:#181818;stroke-width:1.0;"/><polygon fill="#181818" points="248.45,365.64,256.3923,359.816,250.9338,361.3005,249.4492,355.842,248.45,365.64" style="stroke:#181818;stroke-width:1.0;"/></g><!--MD5=[0aef0c04a16a4f7eb1981b714bd7a216]
link UserNeedsAPI to UserProfileService--><g id="link_UserNeedsAPI_UserProfileService"><path d="M461.41,298.64 C451.3,315.13 435.16,341.44 422.91,361.43 " fill="none" id="UserNeedsAPI-to-UserProfileService" style="stroke:#181818;stroke-width:1.0;"/><polygon fill="#181818" points="420.2,365.84,428.3183,360.2639,422.8165,361.5793,421.5011,356.0775,420.2,365.84" style="stroke:#181818;stroke-width:1.0;"/></g><!--MD5=[cd471442b347ceb8e042664dd96dd7dc]
link UserNeedsAPI to NeedsMatchingService--><g id="link_UserNeedsAPI_NeedsMatchingService"><path d="M490.76,297.96 C512.94,314.76 549.34,342.32 576.29,362.72 " fill="none" id="UserNeedsAPI-to-NeedsMatchingService" style="stroke:#181818;stroke-width:1.0;"/><polygon fill="#181818" points="580.53,365.93,575.7645,357.3109,576.542,362.914,570.9389,363.6916,580.53,365.93" style="stroke:#181818;stroke-width:1.0;"/></g><!--MD5=[af88f37bd7fe89234f118ac0c42b361e]
link NeedyMapAPI to MapService--><g id="link_NeedyMapAPI_MapService"><path d="M783.92,298.64 C785.92,314.92 789.09,340.78 791.53,360.67 " fill="none" id="NeedyMapAPI-to-MapService" style="stroke:#181818;stroke-width:1.0;"/><polygon fill="#181818" points="792.16,365.84,795.0528,356.4256,791.5609,360.876,787.1104,357.3841,792.16,365.84" style="stroke:#181818;stroke-width:1.0;"/></g><!--MD5=[53d94b20ca71cf7feba7c068f081b4bd]
link NewMicroservices to GenericAPI--><g id="link_NewMicroservices_GenericAPI"><path d="M582.95,90 C550.48,106.96 506.3,130.02 472.76,147.54 " fill="none" id="NewMicroservices-to-GenericAPI" style="stroke:#008000;stroke-width:1.0;stroke-dasharray:7.0,7.0;"/><polygon fill="#008000" points="468.31,149.86,478.1391,149.2367,472.7414,147.5442,474.4339,142.1465,468.31,149.86" style="stroke:#008000;stroke-width:1.0;"/></g><!--MD5=[2b1fd5a8d9eabbf79fb57ff8c2378ef4]
link NewMicroservices to EventBus--><g id="link_NewMicroservices_EventBus"><path d="M627,90.31 C627,129.87 627,209.99 627,252.7 " fill="none" id="NewMicroservices-to-EventBus" style="stroke:#008000;stroke-width:1.0;stroke-dasharray:7.0,7.0;"/><polygon fill="#008000" points="627,257.72,631,248.72,627,252.72,623,248.72,627,257.72" style="stroke:#008000;stroke-width:1.0;"/></g><!--MD5=[addefd43cf368d7b43cdecd07e47008c]
link AuthService to UserData--><g id="link_AuthService_UserData"><path d="M252.41,414.14 C266.04,432.27 285.05,457.54 299.44,476.66 " fill="none" id="AuthService-to-UserData" style="stroke:#181818;stroke-width:1.0;"/><polygon fill="#181818" points="302.62,480.89,300.3981,471.295,299.6109,476.8969,294.0091,476.1096,302.62,480.89" style="stroke:#181818;stroke-width:1.0;"/></g><!--MD5=[56b92b361a44684f432fd78b450d19ca]
link UserProfileService to UserData--><g id="link_UserProfileService_UserData"><path d="M388.39,414.14 C374.59,432.27 355.36,457.54 340.81,476.66 " fill="none" id="UserProfileService-to-UserData" style="stroke:#181818;stroke-width:1.0;"/><polygon fill="#181818" points="337.59,480.89,346.22,476.1441,340.6151,476.9089,339.8502,471.304,337.59,480.89" style="stroke:#181818;stroke-width:1.0;"/></g><!--MD5=[691a78a89c4dcd5e480cd5723a2fc021]
link NeedsMatchingService to UserProfileService--><g id="link_NeedsMatchingService_UserProfileService"><path d="M518.78,390 C508.93,390 499.08,390 489.23,390 " fill="none" id="NeedsMatchingService-to-UserProfileService" style="stroke:#181818;stroke-width:1.0;"/><polygon fill="#181818" points="484.08,390,493.08,394,489.08,390,493.08,386,484.08,390" style="stroke:#181818;stroke-width:1.0;"/></g><!--MD5=[b01cf602cfd85eaf8bf91c0b28ca9c6c]
reverse link UserProfileService to MapService--><g id="link_UserProfileService_MapService"><path d="M449.94,363.48 C470.33,352.67 495.36,341.45 519.5,336 C599.27,317.99 624.61,314.46 703.5,336 C725.21,341.93 747.01,354.47 763.88,365.98 " fill="none" id="UserProfileService-backto-MapService" style="stroke:#181818;stroke-width:1.0;"/><polygon fill="#181818" points="445.39,365.92,455.2132,365.2092,449.8006,363.5648,451.4449,358.1522,445.39,365.92" style="stroke:#181818;stroke-width:1.0;"/></g><!--MD5=[3b485e65ada90c26ca41fc4d3b5e8c50]
link ExternalResources to MapService--><g id="link_ExternalResources_MapService"><path d="M929.68,306 C902.39,322.82 865.34,345.65 837.01,363.11 " fill="none" id="ExternalResources-to-MapService" style="stroke:#181818;stroke-width:1.0;"/><polygon fill="#181818" points="832.55,365.86,842.3093,364.5352,836.8044,363.2331,838.1064,357.7282,832.55,365.86" style="stroke:#181818;stroke-width:1.0;"/></g><!--MD5=[a95d566be395eb9e8fd5bc05c454e8a8]
link ExternalResources to NeedsMatchingService--><g id="link_ExternalResources_NeedsMatchingService"><path d="M889.75,306 C831.77,323.26 752.53,346.86 693.35,364.48 " fill="none" id="ExternalResources-to-NeedsMatchingService" style="stroke:#181818;stroke-width:1.0;"/><polygon fill="#181818" points="688.4,365.95,698.1646,367.2353,693.195,364.533,695.8974,359.5633,688.4,365.95" style="stroke:#181818;stroke-width:1.0;"/></g><!--MD5=[a5c29fb32b384f17daa04e1eb57a6a17]
link NewMicroservices to ExternalResources--><g id="link_NewMicroservices_ExternalResources"><path d="M663.71,90.11 C727.73,130.4 859.32,213.23 926.14,255.28 " fill="none" id="NewMicroservices-to-ExternalResources" style="stroke:#181818;stroke-width:1.0;"/><polygon fill="#181818" points="930.44,257.99,924.9676,249.8014,926.2129,255.3195,920.6948,256.5648,930.44,257.99" style="stroke:#181818;stroke-width:1.0;"/></g><!--MD5=[cf24022c34b8c28b40ba1a87f808519a]
@startuml "SelflessServe System"
!define RECTANGLE class

package "SelflessServe System" {
  [SelflessServeCore] ..> (UserRegistrationAPI)
  [SelflessServeCore] ..> (UserLoginAPI)
  [SelflessServeCore] ..> (UserNeedsAPI)
  [SelflessServeCore] ..> (NeedyMapAPI)
  
  [SelflessServeCore] - - [GenericAPI]
  [SelflessServeCore] - - [EventBus]
  
  database "UserDatabase" {
    [UserData]
  }

  [GenericAPI] - -> (UserRegistrationAPI)
  [GenericAPI] - -> (UserLoginAPI)
  [GenericAPI] - -> (UserNeedsAPI)
  [GenericAPI] - -> (NeedyMapAPI)
  
  [EventBus] - -> [AuthService]
  [EventBus] - -> [UserProfileService]
  [EventBus] - -> [NeedsMatchingService]
  [EventBus] - -> [MapService]
  
  (UserRegistrationAPI) - -> [AuthService]
  (UserLoginAPI) - -> [AuthService]
  
  (UserNeedsAPI) - -> [UserProfileService]
  (UserNeedsAPI) - -> [NeedsMatchingService]
  
  (NeedyMapAPI) - -> [MapService]

  component [NewMicroservices] #palegreen
  
  [NewMicroservices] ..> [GenericAPI] #green
  [NewMicroservices] ..> [EventBus] #green
}

[AuthService] - -> [UserData]
[UserProfileService] - -> [UserData]
[NeedsMatchingService] -right-> [UserProfileService]
[MapService] -left-> [UserProfileService]

[ExternalResources] - -> [MapService]
[ExternalResources] - -> [NeedsMatchingService]
[NewMicroservices] - -> [ExternalResources]

@enduml

@startuml "SelflessServe System"

package "SelflessServe System" {
  [SelflessServeCore] ..> (UserRegistrationAPI)
  [SelflessServeCore] ..> (UserLoginAPI)
  [SelflessServeCore] ..> (UserNeedsAPI)
  [SelflessServeCore] ..> (NeedyMapAPI)
  
  [SelflessServeCore] - - [GenericAPI]
  [SelflessServeCore] - - [EventBus]
  
  database "UserDatabase" {
    [UserData]
  }

  [GenericAPI] - -> (UserRegistrationAPI)
  [GenericAPI] - -> (UserLoginAPI)
  [GenericAPI] - -> (UserNeedsAPI)
  [GenericAPI] - -> (NeedyMapAPI)
  
  [EventBus] - -> [AuthService]
  [EventBus] - -> [UserProfileService]
  [EventBus] - -> [NeedsMatchingService]
  [EventBus] - -> [MapService]
  
  (UserRegistrationAPI) - -> [AuthService]
  (UserLoginAPI) - -> [AuthService]
  
  (UserNeedsAPI) - -> [UserProfileService]
  (UserNeedsAPI) - -> [NeedsMatchingService]
  
  (NeedyMapAPI) - -> [MapService]

  component [NewMicroservices] #palegreen
  
  [NewMicroservices] ..> [GenericAPI] #green
  [NewMicroservices] ..> [EventBus] #green
}

[AuthService] - -> [UserData]
[UserProfileService] - -> [UserData]
[NeedsMatchingService] -right-> [UserProfileService]
[MapService] -left-> [UserProfileService]

[ExternalResources] - -> [MapService]
[ExternalResources] - -> [NeedsMatchingService]
[NewMicroservices] - -> [ExternalResources]

@enduml

PlantUML version 1.2022.7(Mon Aug 22 19:01:30 CEST 2022)
(GPL source distribution)
Java Runtime: Java(TM) SE Runtime Environment
JVM: Java HotSpot(TM) 64-Bit Server VM
Default Encoding: UTF-8
Language: de
Country: DE
--></g></svg>