<?xml version="1.0" encoding="UTF-8" standalone="no"?><svg xmlns="http://www.w3.org/2000/svg" xmlns:xlink="http://www.w3.org/1999/xlink" contentStyleType="text/css" height="986px" preserveAspectRatio="none" style="width:320px;height:986px;background:#FFFFFF;" version="1.1" viewBox="0 0 320 986" width="320px" zoomAndPan="magnify"><defs/><g><!--MD5=[b32de1d46d95021063f1d627270df8f8]
cluster Basic Human Needs--><g id="cluster_Basic Human Needs"><rect fill="none" height="973" rx="2.5" ry="2.5" style="stroke:#181818;stroke-width:1.0;" width="220" x="94" y="7"/><text fill="#000000" font-family="sans-serif" font-size="14" font-weight="bold" lengthAdjust="spacing" textLength="139" x="134.5" y="23.5332">Basic Human Needs</text></g><g id="elem_UC1"><ellipse cx="203.9598" cy="58.9615" fill="#F1F1F1" rx="45.4598" ry="15.4615" style="stroke:#181818;stroke-width:0.5;"/><text fill="#000000" font-family="sans-serif" font-size="14" lengthAdjust="spacing" textLength="48" x="178.7695" y="63.0394">Oxygen</text></g><g id="elem_UC2"><ellipse cx="203.8198" cy="124.9517" fill="#F1F1F1" rx="34.8198" ry="15.4517" style="stroke:#181818;stroke-width:0.5;"/><text fill="#000000" font-family="sans-serif" font-size="14" lengthAdjust="spacing" textLength="33" x="187.3198" y="128.6802">Food</text></g><g id="elem_UC3"><ellipse cx="203.8553" cy="190.9517" fill="#F1F1F1" rx="38.3553" ry="15.4517" style="stroke:#181818;stroke-width:0.5;"/><text fill="#000000" font-family="sans-serif" font-size="14" lengthAdjust="spacing" textLength="38" x="184.8553" y="194.6802">Water</text></g><g id="elem_UC4"><ellipse cx="203.811" cy="256.9535" fill="#F1F1F1" rx="43.311" ry="15.4535" style="stroke:#181818;stroke-width:0.5;"/><text fill="#000000" font-family="sans-serif" font-size="14" lengthAdjust="spacing" textLength="45" x="180.8228" y="260.8329">Shelter</text></g><g id="elem_UC5"><ellipse cx="203.9411" cy="322.9517" fill="#F1F1F1" rx="36.9411" ry="15.4517" style="stroke:#181818;stroke-width:0.5;"/><text fill="#000000" font-family="sans-serif" font-size="14" lengthAdjust="spacing" textLength="36" x="185.9411" y="326.6802">Sleep</text></g><g id="elem_UC6"><ellipse cx="203.861" cy="388.9809" fill="#F1F1F1" rx="48.361" ry="15.4809" style="stroke:#181818;stroke-width:0.5;"/><text fill="#000000" font-family="sans-serif" font-size="14" lengthAdjust="spacing" textLength="52" x="175.6681" y="393.3128">Clothing</text></g><g id="elem_UC7"><ellipse cx="204.0069" cy="457.9014" fill="#F1F1F1" rx="77.5069" ry="17.9014" style="stroke:#181818;stroke-width:0.5;"/><text fill="#000000" font-family="sans-serif" font-size="14" lengthAdjust="spacing" textLength="108" x="147.8567" y="462.216">Social Interaction</text></g><g id="elem_UC8"><ellipse cx="203.7696" cy="526.9517" fill="#F1F1F1" rx="39.7696" ry="15.4517" style="stroke:#181818;stroke-width:0.5;"/><text fill="#000000" font-family="sans-serif" font-size="14" lengthAdjust="spacing" textLength="40" x="183.7696" y="530.6802">Safety</text></g><g id="elem_UC9"><ellipse cx="204.1685" cy="593.0838" fill="#F1F1F1" rx="60.1685" ry="15.5838" style="stroke:#181818;stroke-width:0.5;"/><text fill="#000000" font-family="sans-serif" font-size="14" lengthAdjust="spacing" textLength="68" x="167.1685" y="597.6004">Healthcare</text></g><g id="elem_UC10"><ellipse cx="203.9744" cy="659.0553" fill="#F1F1F1" rx="56.4744" ry="15.5553" style="stroke:#181818;stroke-width:0.5;"/><text fill="#000000" font-family="sans-serif" font-size="14" lengthAdjust="spacing" textLength="63" x="169.4744" y="663.5719">Education</text></g><g id="elem_UC11"><ellipse cx="204.0069" cy="727.9014" fill="#F1F1F1" rx="77.5069" ry="17.9014" style="stroke:#181818;stroke-width:0.5;"/><text fill="#000000" font-family="sans-serif" font-size="14" lengthAdjust="spacing" textLength="108" x="147.8567" y="732.216">Self-Actualization</text></g><g id="elem_UC12"><ellipse cx="204.241" cy="796.9582" fill="#F1F1F1" rx="44.741" ry="15.4582" style="stroke:#181818;stroke-width:0.5;"/><text fill="#000000" font-family="sans-serif" font-size="14" lengthAdjust="spacing" textLength="47" x="179.7896" y="800.9706">Leisure</text></g><g id="elem_UC13"><ellipse cx="203.8478" cy="866.8696" fill="#F1F1F1" rx="84.8478" ry="19.3696" style="stroke:#181818;stroke-width:0.5;"/><text fill="#000000" font-family="sans-serif" font-size="14" lengthAdjust="spacing" textLength="126" x="140.8478" y="870.5981">Belonging and Love</text></g><g id="elem_UC14"><ellipse cx="203.8753" cy="943.1751" fill="#F1F1F1" rx="93.8753" ry="21.1751" style="stroke:#181818;stroke-width:0.5;"/><text fill="#000000" font-family="sans-serif" font-size="14" lengthAdjust="spacing" textLength="147" x="130.3753" y="946.9036">Recognition and Status</text></g><!--MD5=[e8c322128e8bed006310bd0f11633135]
entity Human--><g id="elem_Human"><ellipse cx="28" cy="462.5" fill="#F1F1F1" rx="8" ry="8" style="stroke:#181818;stroke-width:0.5;"/><path d="M28,470.5 L28,497.5 M15,478.5 L41,478.5 M28,497.5 L15,512.5 M28,497.5 L41,512.5 " fill="none" style="stroke:#181818;stroke-width:0.5;"/><text fill="#000000" font-family="sans-serif" font-size="14" lengthAdjust="spacing" textLength="44" x="6" y="528.5332">Human</text></g><!--MD5=[a035fe77302b87ddfccf6caae0b47557]
link Human to UC1--><g id="link_Human_UC1"><path d="M29.3,453.8 C30.81,363.68 39.31,145.4 86,92 C102.73,72.87 129.62,64.43 153.4,60.86 " fill="none" id="Human-to-UC1" style="stroke:#181818;stroke-width:1.0;"/><polygon fill="#181818" points="158.42,60.18,148.9646,57.4242,153.4652,60.8511,150.0383,65.3518,158.42,60.18" style="stroke:#181818;stroke-width:1.0;"/></g><!--MD5=[68bc3b19cf46dc54b149b5985a51992c]
link Human to UC2--><g id="link_Human_UC2"><path d="M30.54,453.81 C34.44,374.97 47.3,201.05 86,158 C105.51,136.3 138.08,128.41 163.91,125.75 " fill="none" id="Human-to-UC2" style="stroke:#181818;stroke-width:1.0;"/><polygon fill="#181818" points="168.98,125.28,159.6515,122.1209,164.001,125.7378,160.3841,130.0873,168.98,125.28" style="stroke:#181818;stroke-width:1.0;"/></g><!--MD5=[c18aa91ef6c03fc27d0f42687643b2ca]
link Human to UC3--><g id="link_Human_UC3"><path d="M32.36,453.87 C38.84,387.51 55.21,256.89 86,224 C104.92,203.79 135.17,195.63 160.17,192.47 " fill="none" id="Human-to-UC3" style="stroke:#181818;stroke-width:1.0;"/><polygon fill="#181818" points="165.42,191.87,156.0221,188.9239,160.4527,192.441,156.9356,196.8716,165.42,191.87" style="stroke:#181818;stroke-width:1.0;"/></g><!--MD5=[07e8e546d68c1be58208c8e331a8a92b]
link Human to UC4--><g id="link_Human_UC4"><path d="M29.13,453.77 C31.44,408.22 42.28,333.77 86,290 C104.31,271.67 131.97,263.33 155.79,259.62 " fill="none" id="Human-to-UC4" style="stroke:#181818;stroke-width:1.0;"/><polygon fill="#181818" points="160.82,258.89,151.3415,256.2145,155.8711,259.6031,152.4825,264.1327,160.82,258.89" style="stroke:#181818;stroke-width:1.0;"/></g><!--MD5=[4eb6497af65c86d76447cc70bec33d65]
link Human to UC5--><g id="link_Human_UC5"><path d="M35.65,453.93 C42.89,423.14 57.48,381.3 86,356 C106.86,337.5 137.34,329.3 161.97,325.7 " fill="none" id="Human-to-UC5" style="stroke:#181818;stroke-width:1.0;"/><polygon fill="#181818" points="167.13,325,157.6746,322.2442,162.1752,325.6711,158.7483,330.1718,167.13,325" style="stroke:#181818;stroke-width:1.0;"/></g><!--MD5=[b28f67b1275cb56637b1001a08349d85]
link Human to UC6--><g id="link_Human_UC6"><path d="M50.12,458.33 C59.62,445.27 71.9,431.33 86,422 C106.21,408.63 131.82,400.61 153.93,395.84 " fill="none" id="Human-to-UC6" style="stroke:#181818;stroke-width:1.0;"/><polygon fill="#181818" points="158.88,394.81,149.256,392.7173,153.9838,395.8235,150.8776,400.5513,158.88,394.81" style="stroke:#181818;stroke-width:1.0;"/></g><!--MD5=[da5456b9094c4708b98c1838718d5c5a]
link Human to UC7--><g id="link_Human_UC7"><path d="M50.34,488.71 C72.56,484.24 108.45,477.02 139.85,470.7 " fill="none" id="Human-to-UC7" style="stroke:#181818;stroke-width:1.0;"/><polygon fill="#181818" points="144.85,469.7,135.2379,467.5535,139.9482,470.6861,136.8156,475.3964,144.85,469.7" style="stroke:#181818;stroke-width:1.0;"/></g><!--MD5=[048321b612091358a6c0eeb8b6fefdbc]
link Human to UC8--><g id="link_Human_UC8"><path d="M50.34,497.17 C78.27,502.63 127.81,512.31 162.87,519.16 " fill="none" id="Human-to-UC8" style="stroke:#181818;stroke-width:1.0;"/><polygon fill="#181818" points="167.93,520.15,159.8607,514.5032,163.0222,519.1941,158.3313,522.3556,167.93,520.15" style="stroke:#181818;stroke-width:1.0;"/></g><!--MD5=[cf6a7ff3767048d6d1964671468bf56b]
link Human to UC9--><g id="link_Human_UC9"><path d="M50.21,525.36 C59.8,537.78 72.12,551.09 86,560 C104.1,571.61 126.32,579.2 146.51,584.14 " fill="none" id="Human-to-UC9" style="stroke:#181818;stroke-width:1.0;"/><polygon fill="#181818" points="151.6,585.34,143.7515,579.3901,146.7322,584.198,141.9243,587.1786,151.6,585.34" style="stroke:#181818;stroke-width:1.0;"/></g><!--MD5=[1e29206fb2ad52dadc69f6fb1961840e]
link Human to UC10--><g id="link_Human_UC10"><path d="M36.26,532.16 C43.77,561.95 58.44,601.8 86,626 C102.37,640.37 124.56,648.52 145.22,653.12 " fill="none" id="Human-to-UC10" style="stroke:#181818;stroke-width:1.0;"/><polygon fill="#181818" points="150.16,654.17,142.1737,648.4064,145.2666,653.1428,140.5302,656.2358,150.16,654.17" style="stroke:#181818;stroke-width:1.0;"/></g><!--MD5=[fefc4806388750162441bece51a09705]
link Human to UC11--><g id="link_Human_UC11"><path d="M29.59,532.1 C32.39,576.66 43.73,648.89 86,692 C98.07,704.31 114.24,712.43 130.69,717.78 " fill="none" id="Human-to-UC11" style="stroke:#181818;stroke-width:1.0;"/><polygon fill="#181818" points="135.8,719.36,128.373,712.8917,131.0208,717.8906,126.0219,720.5384,135.8,719.36" style="stroke:#181818;stroke-width:1.0;"/></g><!--MD5=[4f78aa01f66b1a687591ca6f650e7b78]
link Human to UC12--><g id="link_Human_UC12"><path d="M32.37,532.25 C38.86,598.81 55.25,729.86 86,763 C103.53,781.89 130.87,790.5 154.72,794.34 " fill="none" id="Human-to-UC12" style="stroke:#181818;stroke-width:1.0;"/><polygon fill="#181818" points="159.75,795.09,151.4295,789.8203,154.8034,794.3609,150.2629,797.7348,159.75,795.09" style="stroke:#181818;stroke-width:1.0;"/></g><!--MD5=[35c6d10e77f18b1017ae8f12bb378c71]
link Human to UC13--><g id="link_Human_UC13"><path d="M30.6,532.02 C34.63,611 47.73,786.02 86,830 C96.3,841.84 110.36,849.93 125.17,855.45 " fill="none" id="Human-to-UC13" style="stroke:#181818;stroke-width:1.0;"/><polygon fill="#181818" points="130.21,857.22,123.0458,850.4617,125.4929,855.5619,120.3928,858.009,130.21,857.22" style="stroke:#181818;stroke-width:1.0;"/></g><!--MD5=[7c8f02bddf34c5a5ea326c1b4473d0fa]
link Human to UC14--><g id="link_Human_UC14"><path d="M29.33,532.34 C30.87,623.94 39.44,847.98 86,904 C95.41,915.32 108.2,923.37 121.87,929.09 " fill="none" id="Human-to-UC14" style="stroke:#181818;stroke-width:1.0;"/><polygon fill="#181818" points="126.54,930.95,119.6432,923.9191,121.8908,929.1103,116.6996,931.3579,126.54,930.95" style="stroke:#181818;stroke-width:1.0;"/></g><!--MD5=[97dfdd4f165055432d9f1b151dffd93e]
@startuml "Human Use Cases"
left to right direction
actor Human

rectangle "Basic Human Needs" {
  usecase "Oxygen" as UC1
  usecase "Food" as UC2
  usecase "Water" as UC3
  usecase "Shelter" as UC4
  usecase "Sleep" as UC5
  usecase "Clothing" as UC6
  usecase "Social Interaction" as UC7
  usecase "Safety" as UC8
  usecase "Healthcare" as UC9
  usecase "Education" as UC10
  usecase "Self-Actualization" as UC11
  usecase "Leisure" as UC12
  usecase "Belonging and Love" as UC13
  usecase "Recognition and Status" as UC14
}

Human - -> UC1
Human - -> UC2
Human - -> UC3
Human - -> UC4
Human - -> UC5
Human - -> UC6
Human - -> UC7
Human - -> UC8
Human - -> UC9
Human - -> UC10
Human - -> UC11
Human - -> UC12
Human - -> UC13
Human - -> UC14


@enduml

PlantUML version 1.2022.7(Mon Aug 22 19:01:30 CEST 2022)
(GPL source distribution)
Java Runtime: Java(TM) SE Runtime Environment
JVM: Java HotSpot(TM) 64-Bit Server VM
Default Encoding: UTF-8
Language: de
Country: DE
--></g></svg>