<?xml version="1.0" encoding="UTF-8" standalone="no"?><svg xmlns="http://www.w3.org/2000/svg" xmlns:xlink="http://www.w3.org/1999/xlink" contentStyleType="text/css" height="1044px" preserveAspectRatio="none" style="width:320px;height:1044px;background:#FFFFFF;" version="1.1" viewBox="0 0 320 1044" width="320px" zoomAndPan="magnify"><defs/><g><!--MD5=[b32de1d46d95021063f1d627270df8f8]
cluster Basic Human Needs--><g id="cluster_Basic Human Needs"><rect fill="none" height="973" rx="2.5" ry="2.5" style="stroke:#181818;stroke-width:1.0;" width="220" x="94" y="65.5"/><text fill="#000000" font-family="sans-serif" font-size="14" font-weight="bold" lengthAdjust="spacing" textLength="139" x="134.5" y="82.0332">Basic Human Needs</text></g><g id="elem_UC1"><ellipse cx="203.9598" cy="117.4615" fill="#F1F1F1" rx="45.4598" ry="15.4615" style="stroke:#181818;stroke-width:0.5;"/><text fill="#000000" font-family="sans-serif" font-size="14" lengthAdjust="spacing" textLength="48" x="178.7695" y="121.5394">Oxygen</text></g><g id="elem_UC2"><ellipse cx="203.8198" cy="183.4517" fill="#F1F1F1" rx="34.8198" ry="15.4517" style="stroke:#181818;stroke-width:0.5;"/><text fill="#000000" font-family="sans-serif" font-size="14" lengthAdjust="spacing" textLength="33" x="187.3198" y="187.1802">Food</text></g><g id="elem_UC3"><ellipse cx="203.8553" cy="249.4517" fill="#F1F1F1" rx="38.3553" ry="15.4517" style="stroke:#181818;stroke-width:0.5;"/><text fill="#000000" font-family="sans-serif" font-size="14" lengthAdjust="spacing" textLength="38" x="184.8553" y="253.1802">Water</text></g><g id="elem_UC4"><ellipse cx="203.811" cy="315.4535" fill="#F1F1F1" rx="43.311" ry="15.4535" style="stroke:#181818;stroke-width:0.5;"/><text fill="#000000" font-family="sans-serif" font-size="14" lengthAdjust="spacing" textLength="45" x="180.8228" y="319.3329">Shelter</text></g><g id="elem_UC5"><ellipse cx="203.9411" cy="381.4517" fill="#F1F1F1" rx="36.9411" ry="15.4517" style="stroke:#181818;stroke-width:0.5;"/><text fill="#000000" font-family="sans-serif" font-size="14" lengthAdjust="spacing" textLength="36" x="185.9411" y="385.1802">Sleep</text></g><g id="elem_UC6"><ellipse cx="203.861" cy="447.4809" fill="#F1F1F1" rx="48.361" ry="15.4809" style="stroke:#181818;stroke-width:0.5;"/><text fill="#000000" font-family="sans-serif" font-size="14" lengthAdjust="spacing" textLength="52" x="175.6681" y="451.8128">Clothing</text></g><g id="elem_UC7"><ellipse cx="204.0069" cy="516.4014" fill="#F1F1F1" rx="77.5069" ry="17.9014" style="stroke:#181818;stroke-width:0.5;"/><text fill="#000000" font-family="sans-serif" font-size="14" lengthAdjust="spacing" textLength="108" x="147.8567" y="520.716">Social Interaction</text></g><g id="elem_UC8"><ellipse cx="203.7696" cy="585.4517" fill="#F1F1F1" rx="39.7696" ry="15.4517" style="stroke:#181818;stroke-width:0.5;"/><text fill="#000000" font-family="sans-serif" font-size="14" lengthAdjust="spacing" textLength="40" x="183.7696" y="589.1802">Safety</text></g><g id="elem_UC9"><ellipse cx="204.1685" cy="651.5838" fill="#F1F1F1" rx="60.1685" ry="15.5838" style="stroke:#181818;stroke-width:0.5;"/><text fill="#000000" font-family="sans-serif" font-size="14" lengthAdjust="spacing" textLength="68" x="167.1685" y="656.1004">Healthcare</text></g><g id="elem_UC10"><ellipse cx="203.9744" cy="717.5553" fill="#F1F1F1" rx="56.4744" ry="15.5553" style="stroke:#181818;stroke-width:0.5;"/><text fill="#000000" font-family="sans-serif" font-size="14" lengthAdjust="spacing" textLength="63" x="169.4744" y="722.0719">Education</text></g><g id="elem_UC11"><ellipse cx="204.0069" cy="786.4014" fill="#F1F1F1" rx="77.5069" ry="17.9014" style="stroke:#181818;stroke-width:0.5;"/><text fill="#000000" font-family="sans-serif" font-size="14" lengthAdjust="spacing" textLength="108" x="147.8567" y="790.716">Self-Actualization</text></g><g id="elem_UC12"><ellipse cx="204.241" cy="855.4582" fill="#F1F1F1" rx="44.741" ry="15.4582" style="stroke:#181818;stroke-width:0.5;"/><text fill="#000000" font-family="sans-serif" font-size="14" lengthAdjust="spacing" textLength="47" x="179.7896" y="859.4706">Leisure</text></g><g id="elem_UC13"><ellipse cx="203.8478" cy="925.3696" fill="#F1F1F1" rx="84.8478" ry="19.3696" style="stroke:#181818;stroke-width:0.5;"/><text fill="#000000" font-family="sans-serif" font-size="14" lengthAdjust="spacing" textLength="126" x="140.8478" y="929.0981">Belonging and Love</text></g><g id="elem_UC14"><ellipse cx="203.8753" cy="1001.6751" fill="#F1F1F1" rx="93.8753" ry="21.1751" style="stroke:#181818;stroke-width:0.5;"/><text fill="#000000" font-family="sans-serif" font-size="14" lengthAdjust="spacing" textLength="147" x="130.3753" y="1005.4036">Recognition and Status</text></g><!--MD5=[e8c322128e8bed006310bd0f11633135]
entity Human--><g id="elem_Human"><ellipse cx="28" cy="486" fill="#F1F1F1" rx="8" ry="8" style="stroke:#181818;stroke-width:0.5;"/><path d="M28,494 L28,521 M15,502 L41,502 M28,521 L15,536 M28,521 L41,536 " fill="none" style="stroke:#181818;stroke-width:0.5;"/><text fill="#000000" font-family="sans-serif" font-size="14" lengthAdjust="spacing" textLength="44" x="6" y="552.0332">Human</text></g><g id="elem_GMN32"><path d="M128.5,6 L128.5,48.7031 L279.5,48.7031 L279.5,16 L269.5,6 L128.5,6 " fill="#FEFFDD" style="stroke:#181818;stroke-width:0.5;"/><path d="M269.5,6 L269.5,16 L279.5,16 L269.5,6 " fill="#FEFFDD" style="stroke:#181818;stroke-width:1.0;"/><text fill="#000000" font-family="sans-serif" font-size="13" lengthAdjust="spacing" textLength="123" x="134.5" y="24.4951">The Human is central</text><text fill="#000000" font-family="sans-serif" font-size="13" lengthAdjust="spacing" textLength="130" x="134.5" y="40.8467">with their basic needs.</text></g><!--MD5=[a035fe77302b87ddfccf6caae0b47557]
link Human to UC1--><g id="link_Human_UC1"><path d="M29.91,477.27 C32.66,392.98 43.56,198.39 86,150.5 C102.86,131.48 129.75,123.05 153.5,119.46 " fill="none" id="Human-to-UC1" style="stroke:#181818;stroke-width:1.0;"/><polygon fill="#181818" points="158.52,118.76,149.0557,116.0347,153.5674,119.4471,150.155,123.9588,158.52,118.76" style="stroke:#181818;stroke-width:1.0;"/></g><!--MD5=[68bc3b19cf46dc54b149b5985a51992c]
link Human to UC2--><g id="link_Human_UC2"><path d="M31.42,477.23 C36.67,404.79 51.52,254.12 86,216.5 C105.65,195.06 138.05,187.14 163.78,184.4 " fill="none" id="Human-to-UC2" style="stroke:#181818;stroke-width:1.0;"/><polygon fill="#181818" points="168.83,183.91,159.4926,180.7775,163.8523,184.382,160.2478,188.7418,168.83,183.91" style="stroke:#181818;stroke-width:1.0;"/></g><!--MD5=[c18aa91ef6c03fc27d0f42687643b2ca]
link Human to UC3--><g id="link_Human_UC3"><path d="M33.72,477.47 C41.63,418.37 59.37,310.11 86,282.5 C105.15,262.65 135.25,254.46 160.12,251.21 " fill="none" id="Human-to-UC3" style="stroke:#181818;stroke-width:1.0;"/><polygon fill="#181818" points="165.34,250.59,155.9338,247.6705,160.3743,251.175,156.8698,255.6156,165.34,250.59" style="stroke:#181818;stroke-width:1.0;"/></g><!--MD5=[07e8e546d68c1be58208c8e331a8a92b]
link Human to UC4--><g id="link_Human_UC4"><path d="M32,477.3 C37.01,439.21 50.37,382.32 86,348.5 C104.72,330.73 132.26,322.41 155.91,318.56 " fill="none" id="Human-to-UC4" style="stroke:#181818;stroke-width:1.0;"/><polygon fill="#181818" points="160.9,317.81,151.3992,315.2147,155.9573,318.5649,152.6071,323.123,160.9,317.81" style="stroke:#181818;stroke-width:1.0;"/></g><!--MD5=[4eb6497af65c86d76447cc70bec33d65]
link Human to UC5--><g id="link_Human_UC5"><path d="M42.32,477.31 C51.48,455.89 65.7,430.52 86,414.5 C107.81,397.29 138.13,389.05 162.43,385.11 " fill="none" id="Human-to-UC5" style="stroke:#181818;stroke-width:1.0;"/><polygon fill="#181818" points="167.52,384.34,158.0181,381.7488,162.5776,385.0971,159.2294,389.6566,167.52,384.34" style="stroke:#181818;stroke-width:1.0;"/></g><!--MD5=[b28f67b1275cb56637b1001a08349d85]
link Human to UC6--><g id="link_Human_UC6"><path d="M50.1,501.11 C60.51,494.07 73.49,486.07 86,480.5 C108.85,470.32 135.63,462.49 157.79,457.02 " fill="none" id="Human-to-UC6" style="stroke:#181818;stroke-width:1.0;"/><polygon fill="#181818" points="162.74,455.82,153.0481,454.0685,157.8826,457.0058,154.9454,461.8403,162.74,455.82" style="stroke:#181818;stroke-width:1.0;"/></g><!--MD5=[da5456b9094c4708b98c1838718d5c5a]
link Human to UC7--><g id="link_Human_UC7"><path d="M50.34,516.5 C68.2,516.5 94.9,516.5 121,516.5 " fill="none" id="Human-to-UC7" style="stroke:#181818;stroke-width:1.0;"/><polygon fill="#181818" points="126.21,516.5,117.21,512.5,121.21,516.5,117.21,520.5,126.21,516.5" style="stroke:#181818;stroke-width:1.0;"/></g><!--MD5=[048321b612091358a6c0eeb8b6fefdbc]
link Human to UC8--><g id="link_Human_UC8"><path d="M50.18,531.39 C60.6,538.22 73.58,546 86,551.5 C110.91,562.52 140.36,571.06 163.48,576.82 " fill="none" id="Human-to-UC8" style="stroke:#181818;stroke-width:1.0;"/><polygon fill="#181818" points="168.61,578.08,160.8154,572.0597,163.7526,576.8942,158.9181,579.8315,168.61,578.08" style="stroke:#181818;stroke-width:1.0;"/></g><!--MD5=[cf6a7ff3767048d6d1964671468bf56b]
link Human to UC9--><g id="link_Human_UC9"><path d="M42.32,555.69 C51.48,577.11 65.7,602.48 86,618.5 C102.5,631.52 123.86,639.4 143.8,644.17 " fill="none" id="Human-to-UC9" style="stroke:#181818;stroke-width:1.0;"/><polygon fill="#181818" points="148.84,645.32,140.9548,639.4189,143.9652,644.2082,139.1759,647.2186,148.84,645.32" style="stroke:#181818;stroke-width:1.0;"/></g><!--MD5=[1e29206fb2ad52dadc69f6fb1961840e]
link Human to UC10--><g id="link_Human_UC10"><path d="M32,555.7 C37.01,593.79 50.37,650.68 86,684.5 C101.8,699.5 123.88,707.77 144.61,712.29 " fill="none" id="Human-to-UC10" style="stroke:#181818;stroke-width:1.0;"/><polygon fill="#181818" points="149.57,713.31,141.5516,707.5911,144.671,712.3102,139.9519,715.4296,149.57,713.31" style="stroke:#181818;stroke-width:1.0;"/></g><!--MD5=[fefc4806388750162441bece51a09705]
link Human to UC11--><g id="link_Human_UC11"><path d="M33.86,555.94 C41.91,615.04 59.76,722.65 86,750.5 C97.75,762.98 113.72,771.16 130.07,776.53 " fill="none" id="Human-to-UC11" style="stroke:#181818;stroke-width:1.0;"/><polygon fill="#181818" points="135.15,778.1,127.7284,771.6254,130.372,776.6266,125.3709,779.2702,135.15,778.1" style="stroke:#181818;stroke-width:1.0;"/></g><!--MD5=[4f78aa01f66b1a687591ca6f650e7b78]
link Human to UC12--><g id="link_Human_UC12"><path d="M31.29,555.54 C36.38,628.79 51.04,782.94 86,821.5 C103.31,840.59 130.64,849.21 154.54,853.01 " fill="none" id="Human-to-UC12" style="stroke:#181818;stroke-width:1.0;"/><polygon fill="#181818" points="159.58,853.74,151.2595,848.4703,154.6334,853.0109,150.0929,856.3848,159.58,853.74" style="stroke:#181818;stroke-width:1.0;"/></g><!--MD5=[35c6d10e77f18b1017ae8f12bb378c71]
link Human to UC13--><g id="link_Human_UC13"><path d="M29.91,555.63 C32.67,640.73 43.6,839 86,888.5 C96.21,900.42 110.23,908.54 125.03,914.07 " fill="none" id="Human-to-UC13" style="stroke:#181818;stroke-width:1.0;"/><polygon fill="#181818" points="130.07,915.84,122.924,909.0625,125.3574,914.1692,120.2507,916.6026,130.07,915.84" style="stroke:#181818;stroke-width:1.0;"/></g><!--MD5=[7c8f02bddf34c5a5ea326c1b4473d0fa]
link Human to UC14--><g id="link_Human_UC14"><path d="M28.84,555.55 C29.22,652.48 35.25,900.77 86,962.5 C95.35,973.87 108.11,981.94 121.77,987.67 " fill="none" id="Human-to-UC14" style="stroke:#181818;stroke-width:1.0;"/><polygon fill="#181818" points="126.44,989.53,119.5506,982.4918,121.7927,987.6854,116.5992,989.9275,126.44,989.53" style="stroke:#181818;stroke-width:1.0;"/></g><!--MD5=[76be2aa7b5eb1f966331f0e59a5e3588]
link Human to GMN32--><g id="link_Human_GMN32"><path d="M29.57,477.44 C31.65,383.47 41.31,147.96 86,85.5 C97.41,69.55 114.47,57.76 132.05,49.13 " fill="none" id="Human-GMN32" style="stroke:#181818;stroke-width:1.0;stroke-dasharray:7.0,7.0;"/></g><!--MD5=[4d85152cbe3950c75ae95a9f107ca05a]
@startuml "Human Use Cases"
left to right direction
actor Human

rectangle "Basic Human Needs" {
  usecase "Oxygen" as UC1
  usecase "Food" as UC2
  usecase "Water" as UC3
  usecase "Shelter" as UC4
  usecase "Sleep" as UC5
  usecase "Clothing" as UC6
  usecase "Social Interaction" as UC7
  usecase "Safety" as UC8
  usecase "Healthcare" as UC9
  usecase "Education" as UC10
  usecase "Self-Actualization" as UC11
  usecase "Leisure" as UC12
  usecase "Belonging and Love" as UC13
  usecase "Recognition and Status" as UC14
}

Human - -> UC1
Human - -> UC2
Human - -> UC3
Human - -> UC4
Human - -> UC5
Human - -> UC6
Human - -> UC7
Human - -> UC8
Human - -> UC9
Human - -> UC10
Human - -> UC11
Human - -> UC12
Human - -> UC13
Human - -> UC14

note right of Human: The Human is central \nwith their basic needs.

@enduml

PlantUML version 1.2022.7(Mon Aug 22 19:01:30 CEST 2022)
(GPL source distribution)
Java Runtime: Java(TM) SE Runtime Environment
JVM: Java HotSpot(TM) 64-Bit Server VM
Default Encoding: UTF-8
Language: de
Country: DE
--></g></svg>